<svg id="svg" version="1.1" xmlns="http://www.w3.org/2000/svg" xmlns:xlink="http://www.w3.org/1999/xlink" width="400" height="400" viewBox="0, 0, 400,400"><g id="svgg"><path id="path0" d="M70.000 53.785 C 62.083 54.805,57.083 58.535,54.699 65.200 C 52.544 71.226,52.525 117.562,54.675 124.200 C 56.243 129.042,60.347 133.088,65.494 134.865 L 68.200 135.800 199.200 135.800 L 330.200 135.800 332.863 134.880 C 338.069 133.081,342.638 128.446,343.984 123.600 C 345.458 118.293,345.662 70.731,344.229 66.600 C 341.328 58.243,336.558 54.592,327.284 53.628 C 321.019 52.977,75.109 53.127,70.000 53.785 M306.080 64.435 C 318.058 66.895,324.404 80.887,322.804 101.310 C 321.425 118.912,314.433 127.554,301.542 127.590 C 286.709 127.632,279.120 114.014,280.783 90.336 C 282.109 71.457,291.825 61.508,306.080 64.435 M299.934 73.599 C 289.381 75.501,287.910 112.619,298.191 117.596 C 302.600 119.730,307.448 117.621,309.582 112.641 C 313.044 104.564,312.813 85.286,309.170 78.239 C 307.246 74.517,303.971 72.871,299.934 73.599 M196.000 176.391 C 195.505 176.704,195.365 178.393,195.200 186.085 L 195.000 195.400 185.600 195.600 L 176.200 195.800 176.200 199.400 L 176.200 203.000 185.600 203.219 C 190.770 203.339,195.045 203.474,195.100 203.519 C 195.155 203.563,195.200 207.572,195.200 212.426 C 195.200 223.080,195.103 222.800,198.786 222.800 C 202.950 222.800,202.800 223.182,202.800 212.571 C 202.800 207.637,202.845 203.563,202.900 203.519 C 202.955 203.474,207.230 203.339,212.400 203.219 L 221.800 203.000 221.800 199.400 L 221.800 195.800 212.400 195.581 C 207.230 195.461,202.955 195.326,202.900 195.281 C 202.845 195.237,202.800 191.163,202.800 186.229 C 202.800 175.708,202.905 175.997,199.071 176.006 C 197.712 176.009,196.330 176.183,196.000 176.391 M90.037 179.041 C 71.448 183.106,70.294 213.184,88.510 218.842 C 98.455 221.931,109.150 216.988,110.994 208.450 C 111.364 206.738,110.886 206.412,108.000 206.412 C 104.846 206.411,104.217 206.675,103.238 208.417 C 100.001 214.178,91.363 214.820,86.690 209.647 C 80.065 202.313,82.480 188.704,90.914 185.848 C 95.877 184.167,100.659 185.527,103.057 189.300 L 104.010 190.800 107.405 190.800 L 110.800 190.800 110.800 189.441 C 110.800 182.524,99.649 176.939,90.037 179.041 M281.632 238.161 C 281.337 238.517,281.209 239.944,281.283 242.061 L 281.400 245.400 304.300 245.503 L 327.200 245.607 327.200 241.846 C 327.200 238.786,327.082 238.040,326.567 237.843 C 325.086 237.274,282.116 237.579,281.632 238.161 M281.680 258.080 C 280.808 258.952,281.048 265.091,281.974 265.586 C 283.151 266.216,326.087 266.153,326.720 265.520 C 327.014 265.226,327.200 263.787,327.200 261.800 C 327.200 259.813,327.014 258.374,326.720 258.080 C 326.027 257.387,282.373 257.387,281.680 258.080 M78.058 287.776 C 75.348 290.641,75.138 290.153,82.026 297.005 C 85.340 300.302,88.234 303.329,88.457 303.731 C 88.801 304.353,87.902 305.432,82.431 310.969 C 74.979 318.510,75.367 317.599,78.352 320.552 C 81.249 323.419,80.567 323.736,88.099 316.033 C 91.344 312.715,94.218 310.000,94.486 310.000 C 94.755 310.000,97.842 312.880,101.347 316.400 C 108.695 323.778,107.887 323.412,110.688 320.634 C 113.470 317.874,113.660 318.310,106.500 311.069 C 102.967 307.496,100.400 304.582,100.400 304.145 C 100.400 303.704,102.977 300.817,106.600 297.200 C 113.659 290.152,113.519 290.483,110.646 287.645 C 107.850 284.884,108.022 284.806,101.349 291.846 C 93.920 299.684,95.472 299.662,87.843 292.042 C 80.517 284.727,80.818 284.858,78.058 287.776 M180.500 300.412 C 179.341 300.878,179.127 306.670,180.229 307.771 C 181.054 308.596,217.101 308.739,217.920 307.920 C 218.565 307.275,218.565 301.125,217.920 300.480 C 217.337 299.897,181.942 299.833,180.500 300.412 " stroke="none" fill="#f1f1f0" fill-rule="evenodd"></path><path id="path1" d="M283.200 157.593 C 270.248 158.255,264.304 162.948,262.586 173.870 C 261.782 178.984,261.926 326.473,262.740 330.600 C 264.331 338.672,270.031 344.086,278.360 345.439 C 283.624 346.293,325.202 346.242,330.158 345.375 C 338.765 343.870,343.917 338.715,345.348 330.178 C 346.320 324.375,346.438 176.667,345.474 172.476 C 343.729 164.893,339.083 160.035,331.800 158.177 C 328.988 157.460,294.030 157.039,283.200 157.593 M327.367 237.443 C 328.170 237.751,328.303 245.137,327.520 245.920 C 327.011 246.429,282.734 246.656,281.433 246.157 C 280.777 245.906,280.447 238.086,281.067 237.467 C 281.400 237.133,326.501 237.110,327.367 237.443 M327.913 261.440 C 328.000 264.517,327.894 265.590,327.468 265.943 C 327.056 266.285,320.896 266.380,303.955 266.303 L 281.000 266.200 280.885 262.228 C 280.821 260.044,280.861 258.018,280.973 257.725 C 281.140 257.290,285.395 257.212,304.489 257.297 L 327.800 257.400 327.913 261.440 " stroke="none" fill="#d16d29" fill-rule="evenodd"></path><path id="path2" d="M66.800 53.162 C 59.314 55.217,54.896 59.734,53.048 67.226 C 51.995 71.494,52.094 118.571,53.166 122.694 C 55.120 130.220,60.617 135.207,68.491 136.600 C 73.516 137.489,324.923 137.482,329.951 136.593 C 338.220 135.130,344.042 129.466,345.636 121.332 C 346.450 117.176,346.594 76.377,345.815 70.391 C 344.540 60.591,340.014 55.229,331.174 53.048 C 326.918 51.997,70.639 52.108,66.800 53.162 M329.568 53.414 C 337.434 54.690,342.297 58.942,344.665 66.617 C 345.769 70.197,345.794 118.773,344.693 122.758 C 342.358 131.214,336.811 135.397,326.631 136.379 C 320.619 136.958,77.748 136.966,71.942 136.387 C 60.692 135.264,54.971 130.355,53.361 120.440 C 52.546 115.419,52.557 74.114,53.375 69.076 C 54.788 60.370,60.188 54.832,68.649 53.411 C 73.741 52.556,324.294 52.559,329.568 53.414 M297.600 64.959 C 286.691 66.984,281.065 77.554,281.079 96.000 C 281.095 116.967,287.894 127.034,302.000 126.975 C 315.441 126.918,321.756 117.827,322.267 97.800 C 322.878 73.845,313.928 61.929,297.600 64.959 M307.227 65.838 C 319.699 69.501,325.812 90.982,320.137 111.200 C 314.649 130.753,291.988 132.523,284.283 114.000 C 280.597 105.138,280.692 87.435,284.481 77.199 C 287.866 68.057,297.833 63.079,307.227 65.838 M298.717 72.795 C 287.312 76.233,287.289 116.197,298.690 119.058 C 308.146 121.432,313.200 113.401,313.200 96.000 C 313.200 78.484,307.918 70.022,298.717 72.795 M305.595 73.831 C 315.287 79.164,315.268 113.068,305.570 118.015 C 295.888 122.955,289.471 110.639,291.125 90.292 C 292.250 76.455,298.155 69.737,305.595 73.831 M67.400 158.252 C 59.839 159.881,54.788 165.310,53.378 173.323 C 52.538 178.093,52.538 220.707,53.378 225.477 C 54.690 232.932,58.829 237.840,65.876 240.294 C 68.813 241.317,117.507 241.562,122.000 240.577 C 129.322 238.971,134.605 233.624,136.064 226.344 C 136.709 223.123,136.985 181.773,136.400 176.000 C 135.442 166.553,131.307 160.984,123.400 158.491 C 120.428 157.554,71.606 157.346,67.400 158.252 M174.000 157.854 C 165.960 159.177,160.466 163.936,158.363 171.400 C 157.905 173.027,157.800 178.254,157.800 199.400 C 157.800 220.546,157.905 225.773,158.363 227.400 C 160.277 234.194,165.120 238.857,172.026 240.554 C 176.308 241.607,223.087 241.517,227.027 240.448 C 234.436 238.438,238.438 234.436,240.448 227.027 C 241.522 223.068,241.607 176.291,240.548 172.026 C 238.883 165.317,234.732 160.801,228.124 158.509 C 226.300 157.876,177.459 157.286,174.000 157.854 M202.967 175.843 C 203.519 176.055,203.600 177.277,203.600 185.422 L 203.600 194.759 213.015 194.879 C 223.926 195.019,223.188 194.691,223.188 199.400 C 223.188 204.096,223.905 203.768,213.115 204.000 L 203.800 204.200 203.693 213.454 L 203.585 222.709 202.400 223.200 C 200.908 223.818,195.933 223.575,195.049 222.841 C 194.487 222.375,194.400 221.154,194.400 213.784 C 194.400 209.099,194.291 204.981,194.157 204.633 C 193.946 204.083,192.780 204.000,185.234 204.000 C 174.550 204.000,175.000 204.200,175.000 199.452 C 175.000 194.760,174.401 195.036,185.119 194.800 L 194.200 194.600 194.308 185.632 C 194.378 179.837,194.572 176.475,194.857 176.132 C 195.315 175.579,201.688 175.352,202.967 175.843 M102.000 178.928 C 107.008 180.601,110.466 184.044,111.674 188.559 C 112.387 191.227,111.903 191.600,107.725 191.600 C 103.848 191.600,103.204 191.352,102.061 189.414 C 99.795 185.573,91.365 185.085,87.763 188.586 C 83.142 193.078,82.447 202.648,86.354 208.000 C 90.853 214.164,99.217 213.819,103.030 207.312 L 104.034 205.600 107.825 205.600 C 112.541 205.600,112.989 206.075,111.600 209.599 C 106.967 221.355,91.350 224.567,81.351 215.820 C 71.354 207.074,73.182 185.985,84.437 180.223 C 89.433 177.666,96.632 177.135,102.000 178.928 M70.600 262.455 C 60.830 263.524,55.020 268.792,53.388 278.062 C 52.539 282.890,52.530 325.460,53.378 330.277 C 54.849 338.639,60.160 343.950,68.520 345.422 C 73.323 346.267,116.305 346.262,121.113 345.416 C 128.768 344.069,134.366 338.730,136.018 331.200 C 136.698 328.103,137.028 286.978,136.421 281.000 C 135.245 269.417,129.996 263.842,119.048 262.552 C 113.909 261.946,75.946 261.870,70.600 262.455 M177.200 262.259 C 166.338 263.495,161.386 266.978,158.518 275.400 C 157.493 278.410,157.232 326.138,158.214 330.994 C 159.800 338.834,164.993 343.881,173.062 345.424 C 177.548 346.283,221.351 346.264,225.858 345.402 C 233.554 343.929,238.710 339.078,240.554 331.574 C 241.614 327.265,241.506 280.685,240.427 276.289 C 238.675 269.153,233.446 264.192,226.181 262.771 C 223.903 262.325,180.593 261.872,177.200 262.259 M87.711 290.800 C 91.216 294.320,94.266 297.200,94.488 297.200 C 94.710 297.200,97.741 294.320,101.224 290.800 C 108.570 283.376,107.668 283.742,110.985 286.846 C 114.746 290.363,114.787 290.230,107.774 297.205 C 104.570 300.392,101.774 303.314,101.561 303.698 C 101.240 304.277,102.224 305.468,107.287 310.630 C 114.403 317.886,114.430 317.947,111.738 320.825 C 108.086 324.729,108.650 324.906,101.369 317.581 C 97.880 314.072,94.771 311.200,94.460 311.200 C 94.149 311.200,91.191 313.990,87.886 317.400 C 80.815 324.696,81.024 324.620,77.623 321.100 C 74.335 317.698,74.245 317.943,81.408 310.795 C 84.823 307.388,87.568 304.384,87.508 304.119 C 87.449 303.854,84.655 300.850,81.300 297.443 C 74.134 290.166,74.225 290.440,77.838 286.949 C 81.188 283.713,80.311 283.371,87.711 290.800 M218.869 299.862 C 220.107 300.983,219.940 307.759,218.653 308.602 C 217.601 309.292,180.019 309.353,179.333 308.667 C 178.697 308.031,178.933 300.014,179.600 299.592 C 180.787 298.841,218.023 299.097,218.869 299.862 " stroke="none" fill="#938a83" fill-rule="evenodd"></path><path id="path3" d="M53.500 0.297 C 51.469 0.402,50.800 0.581,50.800 1.018 C 50.800 1.450,50.283 1.600,48.795 1.600 C 47.692 1.600,46.477 1.758,46.095 1.951 C 44.273 2.872,42.302 3.600,41.629 3.600 C 41.220 3.600,40.782 3.870,40.655 4.200 C 40.529 4.530,39.964 4.800,39.400 4.800 C 38.836 4.800,38.271 5.070,38.145 5.400 C 38.018 5.730,37.478 6.000,36.945 6.000 C 36.411 6.000,35.871 6.270,35.745 6.600 C 35.618 6.930,35.270 7.200,34.971 7.200 C 34.224 7.200,30.758 9.145,29.884 10.055 C 29.491 10.465,28.906 10.800,28.584 10.800 C 28.263 10.800,28.000 11.070,28.000 11.400 C 28.000 11.730,27.724 12.000,27.387 12.000 C 27.051 12.000,26.671 12.270,26.545 12.600 C 26.418 12.930,26.090 13.200,25.816 13.200 C 25.541 13.200,24.831 13.650,24.238 14.200 C 23.644 14.750,22.982 15.200,22.767 15.200 C 22.551 15.200,22.271 15.470,22.145 15.800 C 22.018 16.130,21.664 16.400,21.357 16.400 C 21.051 16.400,20.800 16.670,20.800 17.000 C 20.800 17.330,20.530 17.600,20.200 17.600 C 19.870 17.600,19.600 17.793,19.600 18.029 C 19.600 18.582,18.582 19.600,18.029 19.600 C 17.793 19.600,17.600 19.870,17.600 20.200 C 17.600 20.530,17.330 20.800,17.000 20.800 C 16.670 20.800,16.400 20.969,16.400 21.175 C 16.400 21.382,15.882 22.118,15.248 22.812 C 14.614 23.506,13.850 24.552,13.549 25.137 C 13.248 25.721,12.776 26.344,12.501 26.520 C 12.225 26.696,12.000 27.101,12.000 27.420 C 12.000 27.739,11.730 28.000,11.400 28.000 C 11.070 28.000,10.800 28.263,10.800 28.584 C 10.800 28.906,10.465 29.491,10.055 29.884 C 9.145 30.758,7.200 34.224,7.200 34.971 C 7.200 35.270,6.930 35.618,6.600 35.745 C 6.270 35.871,6.000 36.229,6.000 36.538 C 6.000 36.848,5.730 37.326,5.400 37.600 C 5.070 37.874,4.800 38.622,4.800 39.262 C 4.800 39.927,4.543 40.524,4.200 40.655 C 3.870 40.782,3.600 41.148,3.600 41.468 C 3.600 42.366,2.347 45.985,1.952 46.230 C 1.758 46.349,1.600 47.187,1.600 48.092 C 1.600 49.097,1.328 50.038,0.900 50.510 C -0.189 51.714,-0.189 348.286,0.900 349.490 C 1.328 349.962,1.600 350.903,1.600 351.908 C 1.600 352.813,1.758 353.651,1.952 353.770 C 2.347 354.015,3.600 357.634,3.600 358.532 C 3.600 358.852,3.870 359.218,4.200 359.345 C 4.530 359.471,4.800 360.036,4.800 360.600 C 4.800 361.164,5.070 361.729,5.400 361.855 C 5.730 361.982,6.000 362.522,6.000 363.055 C 6.000 363.589,6.270 364.129,6.600 364.255 C 6.930 364.382,7.200 364.730,7.200 365.029 C 7.200 365.715,9.125 369.267,9.787 369.802 C 10.060 370.022,10.412 370.607,10.569 371.102 C 10.726 371.596,11.112 372.000,11.427 372.000 C 11.742 372.000,12.000 372.261,12.000 372.580 C 12.000 372.899,12.225 373.304,12.501 373.480 C 12.776 373.656,13.248 374.279,13.549 374.863 C 13.850 375.448,14.614 376.494,15.248 377.188 C 15.882 377.882,16.400 378.618,16.400 378.825 C 16.400 379.031,16.670 379.200,17.000 379.200 C 17.330 379.200,17.600 379.470,17.600 379.800 C 17.600 380.130,17.793 380.400,18.029 380.400 C 18.582 380.400,19.600 381.418,19.600 381.971 C 19.600 382.207,19.870 382.400,20.200 382.400 C 20.530 382.400,20.800 382.670,20.800 383.000 C 20.800 383.330,20.969 383.600,21.175 383.600 C 21.382 383.600,22.118 384.118,22.812 384.752 C 23.506 385.386,24.552 386.150,25.137 386.451 C 25.721 386.752,26.344 387.224,26.520 387.499 C 26.696 387.775,27.101 388.000,27.420 388.000 C 27.739 388.000,28.000 388.270,28.000 388.600 C 28.000 388.930,28.263 389.200,28.584 389.200 C 28.906 389.200,29.491 389.535,29.884 389.945 C 30.758 390.855,34.224 392.800,34.971 392.800 C 35.270 392.800,35.618 393.070,35.745 393.400 C 35.871 393.730,36.411 394.000,36.945 394.000 C 37.478 394.000,38.018 394.270,38.145 394.600 C 38.271 394.930,38.836 395.200,39.400 395.200 C 39.964 395.200,40.529 395.470,40.655 395.800 C 40.782 396.130,41.220 396.400,41.629 396.400 C 42.302 396.400,44.273 397.128,46.095 398.049 C 46.477 398.242,47.692 398.400,48.795 398.400 C 50.211 398.400,50.800 398.559,50.800 398.940 C 50.800 399.946,57.868 399.996,200.000 399.996 C 342.132 399.996,349.200 399.946,349.200 398.940 C 349.200 398.559,349.789 398.400,351.205 398.400 C 352.308 398.400,353.523 398.242,353.905 398.049 C 355.727 397.128,357.698 396.400,358.371 396.400 C 358.780 396.400,359.218 396.130,359.345 395.800 C 359.471 395.470,360.036 395.200,360.600 395.200 C 361.164 395.200,361.729 394.930,361.855 394.600 C 361.982 394.270,362.522 394.000,363.055 394.000 C 363.589 394.000,364.129 393.730,364.255 393.400 C 364.382 393.070,364.730 392.800,365.029 392.800 C 365.776 392.800,369.242 390.855,370.116 389.945 C 370.509 389.535,371.094 389.200,371.416 389.200 C 371.737 389.200,372.000 388.930,372.000 388.600 C 372.000 388.270,372.261 388.000,372.580 388.000 C 372.899 388.000,373.304 387.775,373.480 387.499 C 373.656 387.224,374.279 386.752,374.863 386.451 C 375.448 386.150,376.494 385.386,377.188 384.752 C 377.882 384.118,378.618 383.600,378.825 383.600 C 379.031 383.600,379.200 383.330,379.200 383.000 C 379.200 382.670,379.470 382.400,379.800 382.400 C 380.130 382.400,380.400 382.207,380.400 381.971 C 380.400 381.736,380.657 381.286,380.971 380.971 C 381.286 380.657,381.736 380.400,381.971 380.400 C 382.207 380.400,382.400 380.130,382.400 379.800 C 382.400 379.470,382.670 379.200,383.000 379.200 C 383.330 379.200,383.600 379.031,383.600 378.825 C 383.600 378.618,384.118 377.882,384.752 377.188 C 385.386 376.494,386.150 375.448,386.451 374.863 C 386.752 374.279,387.224 373.656,387.499 373.480 C 387.775 373.304,388.000 372.899,388.000 372.580 C 388.000 372.261,388.258 372.000,388.573 372.000 C 388.888 372.000,389.274 371.596,389.431 371.102 C 389.588 370.607,389.940 370.022,390.213 369.802 C 390.875 369.267,392.800 365.715,392.800 365.029 C 392.800 364.730,393.070 364.382,393.400 364.255 C 393.730 364.129,394.000 363.589,394.000 363.055 C 394.000 362.522,394.270 361.982,394.600 361.855 C 394.930 361.729,395.200 361.164,395.200 360.600 C 395.200 360.036,395.470 359.471,395.800 359.345 C 396.130 359.218,396.400 358.852,396.400 358.532 C 396.400 357.634,397.653 354.015,398.048 353.770 C 398.242 353.651,398.400 352.813,398.400 351.908 C 398.400 350.903,398.672 349.962,399.100 349.489 C 400.189 348.286,400.189 51.714,399.100 50.510 C 398.672 50.038,398.400 49.097,398.400 48.092 C 398.400 47.187,398.242 46.349,398.048 46.230 C 397.653 45.985,396.400 42.366,396.400 41.468 C 396.400 41.148,396.130 40.782,395.800 40.655 C 395.457 40.524,395.200 39.927,395.200 39.262 C 395.200 38.622,394.930 37.874,394.600 37.600 C 394.270 37.326,394.000 36.848,394.000 36.538 C 394.000 36.229,393.730 35.871,393.400 35.745 C 393.070 35.618,392.800 35.270,392.800 34.971 C 392.800 34.224,390.855 30.758,389.945 29.884 C 389.535 29.491,389.200 28.906,389.200 28.584 C 389.200 28.263,388.930 28.000,388.600 28.000 C 388.270 28.000,388.000 27.739,388.000 27.420 C 388.000 27.101,387.775 26.696,387.499 26.520 C 387.224 26.344,386.752 25.721,386.451 25.137 C 386.150 24.552,385.386 23.506,384.752 22.812 C 384.118 22.118,383.600 21.382,383.600 21.175 C 383.600 20.969,383.330 20.800,383.000 20.800 C 382.670 20.800,382.400 20.530,382.400 20.200 C 382.400 19.870,382.207 19.600,381.971 19.600 C 381.418 19.600,380.400 18.582,380.400 18.029 C 380.400 17.793,380.130 17.600,379.800 17.600 C 379.470 17.600,379.200 17.330,379.200 17.000 C 379.200 16.670,378.949 16.400,378.643 16.400 C 378.336 16.400,377.982 16.130,377.855 15.800 C 377.729 15.470,377.449 15.200,377.233 15.200 C 377.018 15.200,376.356 14.750,375.762 14.200 C 375.169 13.650,374.459 13.200,374.184 13.200 C 373.910 13.200,373.582 12.930,373.455 12.600 C 373.329 12.270,372.949 12.000,372.613 12.000 C 372.276 12.000,372.000 11.730,372.000 11.400 C 372.000 11.070,371.737 10.800,371.416 10.800 C 371.094 10.800,370.509 10.465,370.116 10.055 C 369.242 9.145,365.776 7.200,365.029 7.200 C 364.730 7.200,364.382 6.930,364.255 6.600 C 364.129 6.270,363.589 6.000,363.055 6.000 C 362.522 6.000,361.982 5.730,361.855 5.400 C 361.729 5.070,361.164 4.800,360.600 4.800 C 360.036 4.800,359.471 4.530,359.345 4.200 C 359.218 3.870,358.780 3.600,358.371 3.600 C 357.698 3.600,355.727 2.872,353.905 1.951 C 353.523 1.758,352.308 1.600,351.205 1.600 C 349.789 1.600,349.200 1.441,349.200 1.060 C 349.200 0.662,348.179 0.453,345.300 0.262 C 341.374 0.002,58.536 0.036,53.500 0.297 M331.174 53.048 C 340.014 55.229,344.540 60.591,345.815 70.391 C 346.594 76.377,346.450 117.176,345.636 121.332 C 344.042 129.466,338.220 135.130,329.951 136.593 C 324.923 137.482,73.516 137.489,68.491 136.600 C 60.617 135.207,55.120 130.220,53.166 122.694 C 52.094 118.571,51.995 71.494,53.048 67.226 C 54.896 59.734,59.314 55.217,66.800 53.162 C 70.639 52.108,326.918 51.997,331.174 53.048 M296.913 65.588 C 287.043 67.934,281.600 78.672,281.600 95.800 C 281.600 115.821,288.294 126.319,301.200 126.536 C 314.750 126.764,322.000 116.126,322.000 96.016 C 322.000 73.924,312.143 61.968,296.913 65.588 M304.552 72.779 C 310.055 74.056,313.200 82.502,313.200 96.000 C 313.200 111.375,309.791 118.773,302.538 119.139 C 294.077 119.566,290.339 112.417,290.336 95.800 C 290.332 78.271,295.081 70.582,304.552 72.779 M331.800 158.177 C 339.083 160.035,343.729 164.893,345.474 172.476 C 346.438 176.667,346.320 324.375,345.348 330.178 C 343.917 338.715,338.765 343.870,330.158 345.375 C 325.202 346.242,283.624 346.293,278.360 345.439 C 270.031 344.086,264.331 338.672,262.740 330.600 C 261.926 326.473,261.782 178.984,262.586 173.870 C 263.834 165.941,267.951 160.888,275.076 158.543 C 279.355 157.134,326.522 156.830,331.800 158.177 M123.400 158.491 C 131.307 160.984,135.442 166.553,136.400 176.000 C 136.985 181.773,136.709 223.123,136.064 226.344 C 134.605 233.624,129.322 238.971,122.000 240.577 C 117.507 241.562,68.813 241.317,65.876 240.294 C 58.829 237.840,54.690 232.932,53.378 225.477 C 52.538 220.707,52.538 178.093,53.378 173.323 C 54.788 165.310,59.839 159.881,67.400 158.252 C 71.606 157.346,120.428 157.554,123.400 158.491 M228.124 158.509 C 234.732 160.801,238.883 165.317,240.548 172.026 C 241.607 176.291,241.522 223.068,240.448 227.027 C 238.438 234.436,234.436 238.438,227.027 240.448 C 223.087 241.517,176.308 241.607,172.026 240.554 C 165.120 238.857,160.277 234.194,158.363 227.400 C 157.905 225.773,157.800 220.546,157.800 199.400 C 157.800 178.254,157.905 173.027,158.363 171.400 C 160.466 163.936,165.960 159.177,174.000 157.854 C 177.459 157.286,226.300 157.876,228.124 158.509 M119.048 262.552 C 129.996 263.842,135.245 269.417,136.421 281.000 C 137.028 286.978,136.698 328.103,136.018 331.200 C 134.366 338.730,128.768 344.069,121.113 345.416 C 116.305 346.262,73.323 346.267,68.520 345.422 C 60.160 343.950,54.849 338.639,53.378 330.277 C 52.530 325.460,52.539 282.890,53.388 278.062 C 55.020 268.792,60.830 263.524,70.600 262.455 C 75.946 261.870,113.909 261.946,119.048 262.552 M226.181 262.771 C 233.446 264.192,238.675 269.153,240.427 276.289 C 241.506 280.685,241.614 327.265,240.554 331.574 C 238.710 339.078,233.554 343.929,225.858 345.402 C 221.351 346.264,177.548 346.283,173.062 345.424 C 164.993 343.881,159.800 338.834,158.214 330.994 C 157.232 326.138,157.493 278.410,158.518 275.400 C 161.386 266.978,166.338 263.495,177.200 262.259 C 180.593 261.872,223.903 262.325,226.181 262.771 " stroke="none" fill="#342c2c" fill-rule="evenodd"></path><path id="path4" d="M68.649 53.411 C 60.188 54.832,54.788 60.370,53.375 69.076 C 52.557 74.114,52.546 115.419,53.361 120.440 C 54.971 130.355,60.692 135.264,71.942 136.387 C 77.748 136.966,320.619 136.958,326.631 136.379 C 336.610 135.416,343.395 130.296,344.624 122.800 C 344.921 120.988,344.213 122.019,343.800 124.000 C 342.934 128.152,337.931 133.128,332.863 134.880 L 330.200 135.800 199.200 135.800 L 68.200 135.800 65.494 134.865 C 60.347 133.088,56.243 129.042,54.675 124.200 C 52.525 117.562,52.544 71.226,54.699 65.200 C 57.181 58.262,62.481 54.525,71.116 53.628 C 76.877 53.029,321.523 53.029,327.284 53.628 C 336.639 54.600,341.467 58.343,344.271 66.800 C 344.947 68.839,345.000 70.916,345.000 95.200 C 345.000 110.212,345.134 120.119,345.315 118.400 C 345.990 111.961,345.421 68.828,344.629 66.400 C 342.156 58.826,337.343 54.675,329.568 53.414 C 324.294 52.559,73.741 52.556,68.649 53.411 M296.400 64.726 C 287.515 67.048,281.458 76.522,281.009 88.800 L 280.855 93.000 281.170 89.600 C 282.807 71.878,291.393 62.906,304.882 64.822 C 317.020 66.547,322.786 77.484,322.267 97.800 C 321.756 117.827,315.441 126.918,302.000 126.975 C 289.410 127.028,282.323 118.375,281.052 101.400 C 280.970 100.300,280.953 101.110,281.015 103.200 C 281.446 117.762,289.746 127.624,301.542 127.590 C 314.433 127.554,321.425 118.912,322.804 101.310 C 324.826 75.499,313.773 60.185,296.400 64.726 M299.800 73.138 C 288.626 75.577,287.174 112.477,298.034 118.018 C 307.594 122.894,314.180 110.311,312.433 90.508 C 311.266 77.285,307.093 71.546,299.800 73.138 M305.600 74.414 C 310.235 76.733,311.766 82.086,311.773 96.000 C 311.779 106.749,311.633 107.855,309.582 112.641 C 306.786 119.165,299.165 120.462,295.295 115.072 C 290.064 107.788,290.126 83.479,295.393 76.574 C 297.853 73.348,301.800 72.513,305.600 74.414 M280.534 96.000 C 280.534 97.650,280.605 98.325,280.691 97.500 C 280.778 96.675,280.778 95.325,280.691 94.500 C 280.605 93.675,280.534 94.350,280.534 96.000 M194.857 176.132 C 194.572 176.475,194.378 179.837,194.308 185.632 L 194.200 194.600 185.119 194.800 C 174.401 195.036,175.000 194.760,175.000 199.452 C 175.000 204.200,174.550 204.000,185.234 204.000 C 192.780 204.000,193.946 204.083,194.157 204.633 C 194.291 204.981,194.400 209.099,194.400 213.784 C 194.400 221.154,194.487 222.375,195.049 222.841 C 195.933 223.575,200.908 223.818,202.400 223.200 L 203.585 222.709 203.693 213.454 L 203.800 204.200 213.115 204.000 C 223.905 203.768,223.188 204.096,223.188 199.400 C 223.188 194.691,223.926 195.019,213.015 194.879 L 203.600 194.759 203.600 185.422 C 203.600 177.277,203.519 176.055,202.967 175.843 C 201.688 175.352,195.315 175.579,194.857 176.132 M202.171 176.629 C 202.705 177.163,202.800 178.606,202.800 186.229 C 202.800 191.163,202.845 195.237,202.900 195.281 C 202.955 195.326,207.230 195.461,212.400 195.581 L 221.800 195.800 221.800 199.400 L 221.800 203.000 212.400 203.219 C 207.230 203.339,202.955 203.474,202.900 203.519 C 202.845 203.563,202.800 207.637,202.800 212.571 C 202.800 223.182,202.950 222.800,198.786 222.800 C 195.103 222.800,195.200 223.080,195.200 212.426 C 195.200 207.572,195.155 203.563,195.100 203.519 C 195.045 203.474,190.770 203.339,185.600 203.219 L 176.200 203.000 176.200 199.400 L 176.200 195.800 185.600 195.600 L 195.000 195.400 195.200 186.085 C 195.365 178.393,195.505 176.704,196.000 176.391 C 197.021 175.746,201.460 175.917,202.171 176.629 M91.600 178.033 C 84.315 178.684,78.576 183.517,75.725 191.400 C 74.671 194.315,74.692 203.637,75.760 206.972 C 81.219 224.012,105.225 225.772,111.600 209.599 C 112.989 206.075,112.541 205.600,107.825 205.600 L 104.034 205.600 103.030 207.312 C 99.217 213.819,90.853 214.164,86.354 208.000 C 82.447 202.648,83.142 193.078,87.763 188.586 C 91.365 185.085,99.795 185.573,102.061 189.414 C 103.204 191.352,103.848 191.600,107.725 191.600 C 111.903 191.600,112.387 191.227,111.674 188.559 C 109.688 181.137,101.996 177.103,91.600 178.033 M98.543 178.988 C 105.209 180.176,110.800 184.944,110.800 189.441 L 110.800 190.800 107.405 190.800 L 104.010 190.800 103.057 189.300 C 100.659 185.527,95.877 184.167,90.914 185.848 C 82.480 188.704,80.065 202.313,86.690 209.647 C 91.363 214.820,100.001 214.178,103.238 208.417 C 104.217 206.675,104.846 206.411,108.000 206.412 C 110.886 206.412,111.364 206.738,110.994 208.450 C 108.225 221.272,88.205 223.877,79.569 212.540 C 75.626 207.365,74.389 198.636,76.622 191.751 C 79.808 181.927,88.064 177.120,98.543 178.988 M281.067 237.467 C 280.447 238.086,280.777 245.906,281.433 246.157 C 282.734 246.656,327.011 246.429,327.520 245.920 C 328.303 245.137,328.170 237.751,327.367 237.443 C 326.501 237.110,281.400 237.133,281.067 237.467 M326.567 237.843 C 327.082 238.040,327.200 238.786,327.200 241.846 L 327.200 245.607 304.300 245.503 L 281.400 245.400 281.283 242.061 C 281.209 239.944,281.337 238.517,281.632 238.161 C 282.116 237.579,325.086 237.274,326.567 237.843 M280.973 257.725 C 280.861 258.018,280.821 260.044,280.885 262.228 L 281.000 266.200 303.955 266.303 C 320.896 266.380,327.056 266.285,327.468 265.943 C 327.894 265.590,328.000 264.517,327.913 261.440 L 327.800 257.400 304.489 257.297 C 285.395 257.212,281.140 257.290,280.973 257.725 M326.720 258.080 C 327.014 258.374,327.200 259.813,327.200 261.800 C 327.200 263.787,327.014 265.226,326.720 265.520 C 326.087 266.153,283.151 266.216,281.974 265.586 C 281.048 265.091,280.808 258.952,281.680 258.080 C 282.373 257.387,326.027 257.387,326.720 258.080 M77.838 286.949 C 74.225 290.440,74.134 290.166,81.300 297.443 C 84.655 300.850,87.449 303.854,87.508 304.119 C 87.568 304.384,84.823 307.388,81.408 310.795 C 74.245 317.943,74.335 317.698,77.623 321.100 C 81.024 324.620,80.815 324.696,87.886 317.400 C 91.191 313.990,94.149 311.200,94.460 311.200 C 94.771 311.200,97.880 314.072,101.369 317.581 C 108.650 324.906,108.086 324.729,111.738 320.825 C 114.430 317.947,114.403 317.886,107.287 310.630 C 102.224 305.468,101.240 304.277,101.561 303.698 C 101.774 303.314,104.570 300.392,107.774 297.205 C 114.787 290.230,114.746 290.363,110.985 286.846 C 107.668 283.742,108.570 283.376,101.224 290.800 C 97.741 294.320,94.710 297.200,94.488 297.200 C 94.266 297.200,91.216 294.320,87.711 290.800 C 80.311 283.371,81.188 283.713,77.838 286.949 M87.843 292.042 C 95.472 299.662,93.920 299.684,101.349 291.846 C 108.022 284.806,107.850 284.884,110.646 287.645 C 113.519 290.483,113.659 290.152,106.600 297.200 C 102.977 300.817,100.400 303.704,100.400 304.145 C 100.400 304.582,102.967 307.496,106.500 311.069 C 113.660 318.310,113.470 317.874,110.688 320.634 C 107.887 323.412,108.695 323.778,101.347 316.400 C 97.842 312.880,94.755 310.000,94.486 310.000 C 94.218 310.000,91.344 312.715,88.099 316.033 C 80.567 323.736,81.249 323.419,78.352 320.552 C 75.367 317.599,74.979 318.510,82.431 310.969 C 87.902 305.432,88.801 304.353,88.457 303.731 C 88.234 303.329,85.340 300.302,82.026 297.005 C 75.138 290.153,75.348 290.641,78.058 287.776 C 80.818 284.858,80.517 284.727,87.843 292.042 M179.600 299.592 C 178.933 300.014,178.697 308.031,179.333 308.667 C 180.019 309.353,217.601 309.292,218.653 308.602 C 219.940 307.759,220.107 300.983,218.869 299.862 C 218.023 299.097,180.787 298.841,179.600 299.592 M217.920 300.480 C 218.565 301.125,218.565 307.275,217.920 307.920 C 217.101 308.739,181.054 308.596,180.229 307.771 C 179.127 306.670,179.341 300.878,180.500 300.412 C 181.942 299.833,217.337 299.897,217.920 300.480 " stroke="none" fill="#b4a08f" fill-rule="evenodd"></path></g></svg>