<?xml version="1.0" standalone="no"?>
<!DOCTYPE svg PUBLIC "-//W3C//DTD SVG 20010904//EN"
 "http://www.w3.org/TR/2001/REC-SVG-20010904/DTD/svg10.dtd">
<svg version="1.0" xmlns="http://www.w3.org/2000/svg"
 width="412.000000pt" height="404.000000pt" viewBox="0 0 412.000000 404.000000"
 preserveAspectRatio="xMidYMid meet">
<metadata>
Created by potrace 1.16, written by Peter Selinger 2001-2019
</metadata>
<g transform="translate(0.000000,404.000000) scale(0.100000,-0.100000)"
fill="#000000" stroke="none">
<path d="M2240 3845 c-97 -52 -194 -86 -339 -119 -278 -64 -381 -103 -381
-146 0 -29 -103 0 -252 72 -85 41 -153 68 -162 65 -20 -8 -20 -47 -1 -94 8
-20 14 -38 12 -40 -2 -2 -38 12 -80 31 -176 81 -188 77 -180 -58 7 -111 -2
-177 -26 -207 l-18 -23 -86 17 c-106 21 -104 21 -116 -2 -8 -14 -1 -35 35 -97
38 -67 43 -83 34 -102 -16 -36 -12 -55 24 -128 68 -141 79 -201 55 -321 -15
-74 -3 -98 42 -89 30 6 26 15 50 -112 7 -35 18 -66 25 -69 7 -2 23 -34 34 -69
30 -88 72 -140 147 -181 82 -45 148 -52 227 -24 32 11 67 28 78 38 15 13 21
14 31 4 19 -20 -32 -57 -90 -65 -75 -11 -113 -25 -179 -67 -40 -26 -82 -43
-120 -50 -32 -6 -75 -18 -94 -27 -53 -26 -57 -53 -26 -163 18 -63 23 -95 16
-97 -6 -2 -23 -14 -38 -27 -25 -22 -27 -29 -31 -120 -3 -100 24 -376 40 -407
6 -10 19 -18 30 -18 18 0 19 -5 13 -53 -12 -105 -85 -362 -130 -462 -76 -166
-221 -526 -245 -607 l-8 -28 1130 0 1129 0 -14 33 c-8 17 -22 53 -30 78 -9 25
-32 71 -50 102 -19 31 -44 91 -56 134 -45 158 -183 401 -268 474 l-42 36 10
129 c6 71 11 157 13 192 l2 63 105 -97 c163 -149 399 -299 550 -349 30 -10 84
-19 120 -19 53 0 75 5 119 29 66 37 93 71 141 182 85 197 137 434 127 574 -8
95 -46 215 -94 298 -46 77 -148 190 -196 216 -30 16 -36 25 -41 63 -3 25 -11
50 -16 57 -19 22 26 46 167 89 76 24 161 54 188 68 123 63 192 202 130 263
-32 33 -79 33 -127 0 -54 -37 -55 -31 -6 24 66 73 118 178 118 236 0 40 -5 52
-35 82 -22 22 -42 34 -53 31 -16 -4 -18 2 -18 48 1 42 -4 57 -23 78 -31 33
-74 34 -115 2 l-32 -24 4 32 c3 35 -25 89 -56 105 -15 8 -31 4 -71 -15 -39
-20 -66 -45 -110 -103 -55 -73 -148 -202 -217 -303 l-32 -47 -6 35 c-4 19 -21
50 -38 69 l-30 35 30 28 c18 17 33 43 36 63 3 19 15 86 26 149 25 141 26 196
4 204 -9 3 -44 -10 -81 -30 -69 -39 -92 -41 -188 -13 l-40 12 60 27 c76 35 91
52 149 179 77 169 73 190 -29 152 l-57 -21 -176 41 c-142 33 -189 40 -239 36
-35 -2 -63 -2 -63 2 0 4 16 23 36 42 44 42 56 63 48 83 -8 22 -31 19 -84 -9z
m1070 -694 c10 -25 8 -35 -14 -80 -15 -28 -56 -88 -93 -133 -37 -46 -79 -103
-95 -127 -32 -51 -38 -108 -11 -118 23 -9 135 110 213 228 68 102 126 169 147
169 7 0 18 -11 24 -24 9 -19 7 -39 -9 -93 -23 -74 -57 -133 -118 -203 -98
-113 -129 -170 -92 -170 28 0 102 79 187 199 52 72 100 131 107 131 17 0 34
-32 34 -63 0 -74 -148 -255 -277 -339 -60 -39 -75 -59 -53 -73 15 -9 208 63
274 102 69 42 93 37 88 -18 -7 -80 -102 -146 -287 -200 -128 -37 -192 -65
-205 -89 -8 -15 -16 -13 -86 21 -77 38 -209 79 -255 79 -20 0 -29 11 -52 63
l-28 62 7 170 c5 131 10 174 22 188 38 43 81 2 93 -90 4 -30 24 -87 43 -127
20 -40 36 -82 36 -95 0 -12 7 -24 16 -28 37 -14 38 48 3 118 -16 33 -17 41 -4
88 15 59 16 60 138 231 119 166 154 209 191 231 40 24 41 24 56 -10z m-1065
-343 c17 -36 36 -63 45 -63 8 0 20 -6 26 -14 6 -8 31 -14 60 -15 48 -1 50 -2
72 -46 20 -39 23 -56 20 -135 -5 -109 -36 -187 -91 -229 -33 -26 -104 -52
-113 -43 -6 5 37 190 46 200 4 5 22 -10 39 -32 35 -43 71 -55 71 -22 0 10 -7
24 -15 31 -9 7 -25 26 -36 42 l-20 28 50 57 c28 31 51 63 51 69 0 31 -26 22
-74 -25 -29 -28 -55 -48 -59 -45 -4 4 -7 40 -7 81 0 58 -3 75 -16 80 -26 10
-31 -12 -32 -130 -1 -117 -27 -269 -57 -326 -23 -45 -83 -101 -130 -122 -23
-10 -91 -31 -151 -45 -197 -47 -336 -22 -454 83 -25 23 -88 98 -140 167 -51
69 -100 126 -107 126 -34 0 -4 -60 94 -189 18 -24 30 -48 27 -53 -14 -22 -97
-49 -148 -49 -102 0 -190 62 -226 159 -20 53 -24 132 -6 149 5 6 86 -43 86
-52 0 -2 -12 -29 -27 -60 -20 -40 -24 -58 -16 -66 16 -16 30 -4 59 52 l25 50
53 -31 c62 -35 76 -37 76 -11 0 12 -18 31 -51 50 -28 18 -49 35 -47 40 2 4 21
38 43 74 30 51 45 67 60 65 12 -2 21 -12 23 -24 2 -12 12 -30 22 -39 18 -16
22 -16 42 -3 13 9 34 34 48 57 14 23 33 52 43 64 18 22 18 21 11 -40 -6 -60
-5 -64 25 -94 26 -25 37 -30 59 -24 46 11 72 34 94 83 17 40 47 169 48 210 0
9 11 12 33 10 27 -3 36 -11 57 -50 24 -46 51 -61 65 -38 3 6 31 -8 64 -31 76
-54 95 -50 99 19 3 48 5 52 29 52 25 0 26 0 19 -60 -6 -52 -4 -62 14 -80 59
-59 165 56 178 192 2 32 8 58 11 58 4 0 20 -28 36 -62z m419 -135 c-14 -156
-10 -207 20 -265 22 -42 24 -52 13 -62 -14 -11 -35 -92 -40 -151 -2 -28 -6
-30 -52 -37 -92 -13 -121 -83 -119 -290 1 -71 -1 -128 -3 -128 -2 0 -38 27
-81 61 -42 34 -94 71 -115 83 l-38 21 6 96 7 96 -27 22 c-15 11 -37 21 -47 21
-18 0 -17 3 9 34 23 28 35 35 68 35 22 1 63 12 90 25 108 50 155 137 163 296
3 78 0 104 -16 147 l-20 53 37 10 c164 44 156 48 145 -67z m-1121 -591 c47
-26 48 -28 43 -65 -2 -21 -7 -42 -11 -45 -3 -4 -21 11 -39 32 -23 28 -38 37
-49 33 -30 -11 -18 -45 48 -132 134 -178 220 -261 335 -324 28 -16 48 -31 44
-34 -19 -11 -194 -28 -216 -21 -50 16 -185 -7 -329 -56 -87 -30 -198 -87 -349
-180 -46 -28 -88 -52 -94 -53 -15 -3 -34 158 -35 295 -1 102 1 118 17 126 9 6
78 26 152 47 136 37 280 57 280 38 0 -5 -54 -26 -121 -47 -123 -38 -149 -57
-115 -82 20 -14 40 -9 227 52 118 39 149 56 149 85 0 36 -61 53 -190 54 -97 0
-129 -4 -205 -28 -49 -15 -96 -27 -105 -27 -11 0 -23 22 -38 75 -12 41 -22 81
-22 90 0 15 4 16 101 35 34 6 86 29 132 56 55 33 94 48 143 56 46 8 81 21 113
43 41 29 48 31 66 18 11 -7 42 -26 68 -41z m657 -30 c0 -115 -43 -280 -104
-401 -31 -61 -48 -74 -35 -28 9 35 28 235 24 252 -2 5 -6 23 -10 38 -7 34 -70
66 -128 67 -38 0 -38 0 -35 37 3 35 6 38 47 48 24 5 88 11 142 13 l99 3 0 -29z
m-336 -119 c1 -101 14 -145 48 -167 27 -17 30 -2 8 45 -11 24 -20 59 -20 77 0
36 15 40 84 21 l39 -11 -6 -129 c-7 -152 -15 -174 -60 -165 -76 15 -201 116
-320 257 l-47 56 20 38 c11 22 20 47 20 55 0 9 2 19 4 21 2 2 55 3 117 2 l112
-1 1 -99z"/>
<path d="M1835 2552 c-33 -11 -51 -23 -53 -36 -4 -17 1 -18 36 -13 36 4 41 2
44 -17 2 -17 10 -21 43 -21 37 0 40 -2 37 -25 -1 -14 -7 -26 -12 -28 -6 -2
-10 -10 -10 -17 0 -23 38 -27 78 -8 28 13 38 25 40 46 2 16 10 31 18 34 8 3
14 9 14 14 0 13 -28 11 -32 -2 -2 -7 -18 -3 -41 11 -26 15 -37 29 -37 45 0 39
-43 45 -125 17z"/>
<path d="M172 268 c-30 -38 -74 -154 -87 -230 l-6 -38 195 0 194 0 -39 72
c-22 39 -44 77 -50 85 -19 22 -55 16 -68 -14 -12 -26 -12 -26 -47 43 -31 63
-56 94 -75 94 -3 0 -11 -6 -17 -12z"/>
</g>
</svg>
